<svg width="24" height="24" viewBox="0 0 24 24" fill="none" xmlns="http://www.w3.org/2000/svg">
<path d="M3.425 22C3.045 22 2.7125 21.8575 2.4275 21.5725C2.1425 21.2875 2 20.955 2 20.575V4.425C2 4.045 2.1425 3.7125 2.4275 3.4275C2.7125 3.1425 3.045 3 3.425 3H19.575C19.955 3 20.2875 3.1425 20.5725 3.4275C20.8575 3.7125 21 4.045 21 4.425V20.575C21 20.955 20.8575 21.2875 20.5725 21.5725C20.2875 21.8575 19.955 22 19.575 22H3.425ZM3.425 20.275C3.425 20.4407 3.55931 20.575 3.725 20.575H19.275C19.4407 20.575 19.575 20.4407 19.575 20.275V4.725C19.575 4.55931 19.4407 4.425 19.275 4.425H3.725C3.55931 4.425 3.425 4.55931 3.425 4.725V20.275Z" fill="#B2C5E1"/>
<path d="M5.15 17.725C4.98431 17.725 4.85 17.5907 4.85 17.425V17.0453C4.85 16.8796 4.98431 16.7453 5.15 16.7453H8.46545C8.65755 16.7453 8.80053 16.567 8.74554 16.3829C8.4942 15.5416 8.04079 14.7943 7.38531 14.141C6.80948 13.567 6.17619 13.1431 5.48545 12.869C5.32383 12.8049 5.33417 12.5625 5.50669 12.5408C5.72281 12.5136 5.94725 12.5 6.18 12.5C7.66517 12.5 8.92312 13.0062 9.95387 14.0185C10.9132 14.9607 11.4261 16.0962 11.4926 17.425C11.5009 17.5905 11.3657 17.725 11.2 17.725H5.15ZM12.7975 17.725C12.6318 17.725 12.4984 17.5906 12.4908 17.4251C12.4753 17.0907 12.4332 16.7906 12.3645 16.5249C12.2863 16.2225 12.1909 15.9223 12.0782 15.6242C12.0493 15.5475 12.0511 15.462 12.0873 15.3884C12.5299 14.4865 13.1764 13.785 14.027 13.2837C14.9137 12.7612 15.8447 12.5 16.82 12.5C17.0527 12.5 17.2772 12.5136 17.4933 12.5408C17.6658 12.5625 17.6762 12.8051 17.5147 12.8693C16.8204 13.1453 16.1788 13.5746 15.5897 14.1573C14.9195 14.8204 14.4706 15.5649 14.243 16.391C14.1929 16.5729 14.3353 16.7453 14.524 16.7453H17.85C18.0157 16.7453 18.15 16.8796 18.15 17.0453V17.425C18.15 17.5907 18.0157 17.725 17.85 17.725H12.7975ZM12.054 13.7567C11.8745 13.9907 11.4818 13.9 11.4961 13.6054C11.5188 13.1357 11.6032 12.6856 11.7494 12.2551C11.9932 11.5366 12.3506 10.9107 12.8217 10.3773C13.2927 9.84396 13.8607 9.41943 14.5257 9.10375C14.8494 8.95011 15.1823 8.83128 15.5243 8.74726C15.8227 8.67395 15.9667 9.06578 15.7369 9.2698C15.4433 9.53051 15.1587 9.82621 14.8832 10.1569C14.3711 10.7716 14.0353 11.4265 13.8756 12.1218C13.8541 12.2154 13.7923 12.2949 13.7068 12.3387C13.2729 12.5611 12.8753 12.857 12.5141 13.2266C12.3483 13.3962 12.1949 13.5729 12.054 13.7567ZM10.6162 12.7477C10.563 12.9879 10.2606 13.1005 10.0688 12.9466C10.0257 12.912 9.98184 12.8775 9.93725 12.8429C9.80995 12.7442 9.6948 12.6594 9.5918 12.5885C9.48292 12.5136 9.42885 12.3799 9.45087 12.2496C9.46246 12.181 9.47219 12.1094 9.48006 12.0346C9.49669 11.8768 9.505 11.7489 9.505 11.6509C9.505 10.8236 9.372 10.0399 9.106 9.29969C8.96856 8.91722 8.80153 8.55219 8.6049 8.2046C8.45364 7.93719 8.71408 7.62393 8.96969 7.79438C9.35225 8.04949 9.70802 8.35804 10.037 8.72004C10.6068 9.34702 11.0159 10.0603 11.2642 10.86C11.2882 10.9374 11.2774 11.021 11.2387 11.0922C11.0658 11.4096 10.9174 11.7509 10.7934 12.1163C10.7218 12.3275 10.6627 12.538 10.6162 12.7477Z" fill="#B2C5E1"/>
</svg>
