<svg width="24" height="24" viewBox="0 0 24 24" fill="none" xmlns="http://www.w3.org/2000/svg">
<path d="M10.831 22V13.731H10.2958C9.15399 13.731 8.07911 13.5124 7.07113 13.0754C6.06315 12.6383 5.16667 12.0183 4.38169 11.2155C3.59671 10.4127 3.00352 9.48498 2.60211 8.43239C2.2007 7.37981 2 6.28263 2 5.14085V3H4.09594C5.1963 3 6.25493 3.21854 7.27183 3.65563C8.28873 4.09272 9.19859 4.71268 10.0014 5.51549C10.5901 6.12207 11.0763 6.8 11.4599 7.5493C11.8434 8.29859 12.1155 9.09249 12.2761 9.93099C12.4125 9.71869 12.5626 9.51397 12.7263 9.31683C12.89 9.11969 13.061 8.923 13.2394 8.72676C14.0423 7.92394 14.9521 7.30399 15.969 6.8669C16.9859 6.42981 18.0534 6.21127 19.1714 6.21127H21.2676V8.35211C21.2676 9.4939 21.0537 10.5911 20.6259 11.6437C20.1981 12.6962 19.5914 13.6239 18.8056 14.4268C18.0028 15.2296 17.0969 15.8451 16.0878 16.2732C15.0787 16.7014 14.0222 16.9155 12.9183 16.9155H12.4366V22H10.831ZM10.8577 12.0986C10.8577 11.0103 10.6793 9.99789 10.3225 9.06127C9.96573 8.12465 9.47512 7.33075 8.8507 6.67958C8.22629 6.0284 7.45915 5.51995 6.5493 5.15423C5.63944 4.7885 4.65822 4.60563 3.60563 4.60563C3.60563 5.72958 3.77066 6.75986 4.1007 7.69648C4.43075 8.6331 4.90798 9.43146 5.53239 10.0915C6.28169 10.8944 7.08897 11.4296 7.95423 11.6972C8.81948 11.9648 9.78732 12.0986 10.8577 12.0986ZM12.4366 15.3099C13.507 15.3099 14.4972 15.1359 15.407 14.788C16.3169 14.4401 17.084 13.9406 17.7084 13.2894C18.3329 12.6383 18.8146 11.8444 19.1535 10.9077C19.4925 9.97113 19.662 8.94085 19.662 7.8169C18.5915 7.8169 17.6014 7.99977 16.6915 8.36549C15.7817 8.73122 15.0146 9.23521 14.3901 9.87746C13.623 10.6803 13.1056 11.5188 12.838 12.393C12.5704 13.2671 12.4366 14.2394 12.4366 15.3099Z" fill="#B2C5E1"/>
</svg>
