<svg width="24" height="24" viewBox="0 0 24 24" fill="none" xmlns="http://www.w3.org/2000/svg">
<path d="M3.77662 21.3836C3.42175 21.739 2.8249 21.896 2.50139 21.5118C2.17639 21.1259 2.33562 20.5557 2.69213 20.1987L19.2251 3.64108C19.585 3.28057 20.1516 3.12796 20.5118 3.48819C20.8819 3.85829 20.6946 4.44044 20.3248 4.81081L3.77662 21.3836ZM3.36973 13.2942C2.86427 13.7996 2 13.4416 2 12.7268C2 12.514 2.08454 12.3099 2.23501 12.1594L11.1594 3.23501C11.3099 3.08454 11.514 3 11.7268 3C12.4416 3 12.7996 3.86427 12.2942 4.36973L3.36973 13.2942ZM3.15691 5.06254C2.72998 5.48947 2 5.1871 2 4.58333C2 4.16111 2.15833 3.79167 2.475 3.475C2.79167 3.15833 3.16111 3 3.58333 3C4.1871 3 4.48947 3.72998 4.06254 4.15691L3.15691 5.06254ZM19.4167 22C18.8129 22 18.5105 21.27 18.9375 20.8431L19.8431 19.9375C20.27 19.5105 21 19.8129 21 20.4167C21 20.8389 20.8417 21.2083 20.525 21.525C20.2083 21.8417 19.8389 22 19.4167 22ZM11.2732 22C10.5584 22 10.2004 21.1357 10.7058 20.6303L19.6303 11.7058C20.1357 11.2004 21 11.5584 21 12.2732C21 12.486 20.9155 12.6901 20.765 12.8406L11.8406 21.765C11.6901 21.9155 11.486 22 11.2732 22Z" fill="#B2C5E1"/>
</svg>
