<svg width="24" height="24" viewBox="0 0 24 24" fill="none" xmlns="http://www.w3.org/2000/svg">
<g clip-path="url(#clip0_836_7055)">
<path d="M4.63664 10.3942C4.43243 10.4459 4.2429 10.412 4.06806 10.2927C3.89322 10.1734 3.7906 10.0112 3.76018 9.80599L2.71136 4.15044C2.68094 3.94526 2.7223 3.74625 2.83543 3.55341C2.94856 3.36057 3.10496 3.24666 3.30463 3.21167C3.5043 3.17669 3.69671 3.21579 3.88187 3.32897C4.06702 3.44215 4.1748 3.60132 4.20522 3.8065L5.25404 9.46206C5.28446 9.66723 5.23908 9.86514 5.11791 10.0558C4.99673 10.2464 4.83631 10.3592 4.63664 10.3942ZM6.105 18.312C5.90078 18.3637 5.71641 18.3268 5.55189 18.2013C5.38737 18.0759 5.28186 17.9084 5.23536 17.6988L4.3963 13.1743C4.36589 12.9692 4.40899 12.7796 4.52562 12.6056C4.64224 12.4316 4.80267 12.3188 5.00688 12.2672C5.20655 12.2322 5.39092 12.2691 5.55999 12.3779C5.72906 12.4866 5.83684 12.6458 5.88334 12.8554L6.7224 17.3798C6.75282 17.585 6.70857 17.7788 6.58967 17.9611C6.47077 18.1434 6.30922 18.2604 6.105 18.312ZM9.44745 13.8551C9.24323 13.9067 9.0537 13.8729 8.87887 13.7536C8.70403 13.6343 8.6014 13.472 8.57099 13.2668L7.10263 5.34907C7.07222 5.14389 7.11357 4.94489 7.22671 4.75205C7.33984 4.55921 7.49624 4.44529 7.69591 4.41031C7.89558 4.37532 8.08397 4.41332 8.26108 4.52431C8.43819 4.63529 8.54999 4.79557 8.59649 5.00513L10.0648 12.9229C10.0953 13.1281 10.0499 13.326 9.92871 13.5166C9.80754 13.7073 9.64712 13.8201 9.44745 13.8551ZM12.9105 9.43109C12.7063 9.48273 12.5168 9.4489 12.342 9.32959C12.1671 9.21027 12.0564 9.04583 12.0099 8.83627L11.6214 6.55565C11.5909 6.35047 11.63 6.15979 11.7386 5.98361C11.8472 5.80742 12.0036 5.69351 12.2078 5.64187C12.4075 5.60688 12.5919 5.64378 12.7609 5.75257C12.93 5.86136 13.0378 6.02054 13.0843 6.23011L13.5038 8.49233C13.5342 8.69751 13.494 8.89235 13.3831 9.07686C13.2723 9.26137 13.1147 9.37945 12.9105 9.43109ZM10.7444 19.5515C10.5402 19.6032 10.3546 19.5704 10.1879 19.4533C10.0211 19.3362 9.91441 19.1728 9.86791 18.9633L9.44838 16.7011C9.41797 16.4959 9.45705 16.3052 9.56564 16.129C9.67422 15.9528 9.83062 15.8389 10.0348 15.7873C10.2345 15.7523 10.4218 15.7945 10.5966 15.9138C10.7714 16.0331 10.8821 16.1975 10.9286 16.4071L11.355 18.6443C11.3854 18.8495 11.3423 19.0391 11.2256 19.2131C11.109 19.3871 10.9486 19.4999 10.7444 19.5515ZM15.2563 20.7831C15.0521 20.8347 14.8625 20.8009 14.6877 20.6816C14.5129 20.5623 14.4022 20.3978 14.3557 20.1883L12.8873 12.2705C12.8569 12.0653 12.9 11.8757 13.0167 11.7017C13.1333 11.5277 13.2937 11.4149 13.4979 11.3633C13.6976 11.3283 13.882 11.3652 14.051 11.474C14.2201 11.5828 14.3279 11.742 14.3744 11.9515L15.8427 19.8693C15.8732 20.0745 15.8341 20.2652 15.7255 20.4413C15.6169 20.6175 15.4605 20.7314 15.2563 20.7831ZM18.358 15.2134C18.1538 15.2651 17.9694 15.2282 17.8049 15.1027C17.6404 14.9773 17.5349 14.8098 17.4884 14.6002L16.2298 7.81355C16.1994 7.60838 16.2385 7.4177 16.347 7.24151C16.4556 7.06533 16.612 6.95142 16.8162 6.89977C17.0159 6.86479 17.2043 6.90279 17.3814 7.01377C17.5585 7.12476 17.6703 7.28503 17.7168 7.4946L18.9754 14.2813C19.0058 14.4864 18.9605 14.6844 18.8393 14.875C18.7181 15.0656 18.5577 15.1785 18.358 15.2134ZM19.6166 22.0001C19.4124 22.0518 19.228 22.0149 19.0635 21.8894C18.899 21.764 18.7935 21.5965 18.747 21.3869L18.1177 17.9936C18.0873 17.7884 18.1263 17.5977 18.2349 17.4215C18.3435 17.2453 18.4999 17.1314 18.7041 17.0798C18.9038 17.0448 19.0922 17.0828 19.2693 17.1938C19.4464 17.3048 19.5582 17.465 19.6047 17.6746L20.234 21.0679C20.2644 21.2731 20.219 21.471 20.0979 21.6617C19.9767 21.8523 19.8163 21.9651 19.6166 22.0001Z" fill="#B2C5E1"/>
</g>
<defs>
<clipPath id="clip0_836_7055">
<rect width="19" height="19" fill="white" transform="translate(2 3)"/>
</clipPath>
</defs>
</svg>
