<svg width="24" height="24" viewBox="0 0 24 24" fill="none" xmlns="http://www.w3.org/2000/svg">
<path d="M4.2396 20.6021C3.80847 20.6749 3.39999 20.3844 3.32724 19.9532C3.25449 19.5221 3.54501 19.1136 3.97614 19.0409L21.15 16.1428C21.5811 16.0701 21.9896 16.3606 22.0624 16.7917C22.1351 17.2228 21.8446 17.6313 21.4135 17.7041L4.2396 20.6021ZM3.51069 16.2827C3.07956 16.3554 2.67108 16.0649 2.59833 15.6338C2.52558 15.2026 2.8161 14.7941 3.24723 14.7214L20.4211 11.8233C20.8522 11.7506 21.2607 12.0411 21.3335 12.4722C21.4062 12.9033 21.1157 13.3118 20.6846 13.3846L3.51069 16.2827ZM2.77739 11.9371C2.34626 12.0099 1.93778 11.7194 1.86503 11.2882C1.79228 10.8571 2.0828 10.4486 2.51393 10.3759L19.6878 7.47781C20.1189 7.40506 20.5274 7.69558 20.6002 8.12671C20.6729 8.55784 20.3824 8.96632 19.9513 9.03907L2.77739 11.9371ZM2.04409 7.59164C1.61296 7.66439 1.20448 7.37387 1.13173 6.94274C1.05898 6.51161 1.3495 6.10313 1.78063 6.03038L18.9545 3.1323C19.3856 3.05955 19.7941 3.35007 19.8668 3.7812C19.9396 4.21233 19.6491 4.62081 19.218 4.69356L2.04409 7.59164Z" fill="#B2C5E1"/>
</svg>
