<svg width="24" height="24" viewBox="0 0 24 24" fill="none" xmlns="http://www.w3.org/2000/svg">
<circle cx="11.5" cy="12.4998" r="8.04656" transform="rotate(-6.81238 11.5 12.4998)" stroke="#B2C5E1" stroke-linecap="round" stroke-dasharray="7 0"/>
<path d="M15.9681 11.965C16.2628 14.4327 14.5014 16.6721 12.0337 16.9669C9.56607 17.2617 7.32667 15.5002 7.03187 13.0325C6.73708 10.5649 8.49854 8.32548 10.9662 8.03069C13.4339 7.73589 15.6733 9.49735 15.9681 11.965ZM8.81911 12.819C8.99599 14.2996 10.3396 15.3565 11.8202 15.1796C13.3008 15.0028 14.3577 13.6591 14.1808 12.1785C14.0039 10.6979 12.6603 9.64105 11.1797 9.81792C9.69911 9.9948 8.64224 11.3384 8.81911 12.819Z" fill="#B2C5E1"/>
</svg>
