<svg width="24" height="24" viewBox="0 0 24 24" fill="none" xmlns="http://www.w3.org/2000/svg">
<path d="M11.0112 20.6563C10.5554 19.3362 10.0054 18.3422 9.36104 17.6743C8.71671 17.0064 7.72663 16.4446 6.39082 15.9888C6.45368 16.7432 6.59512 17.4072 6.81514 17.9808C7.03515 18.5544 7.31803 19.0141 7.66377 19.3598C7.93093 19.627 8.18631 19.8352 8.4299 19.9845C8.67349 20.1338 8.92887 20.2556 9.19603 20.3499C9.46319 20.4442 9.74607 20.511 10.0447 20.5502C10.3433 20.5895 10.6654 20.6249 11.0112 20.6563ZM12.1898 20.6563C13.7142 20.5149 14.8379 20.0827 15.5608 19.3598C16.2837 18.6369 16.7159 17.5132 16.8573 15.9888C16.1816 16.2246 15.5922 16.4839 15.0893 16.7667C14.5864 17.0496 14.1778 17.3482 13.8635 17.6625C13.6278 17.8983 13.4274 18.1301 13.2624 18.3579C13.0974 18.5858 12.952 18.8176 12.8263 19.0534C12.7006 19.2891 12.5906 19.5366 12.4963 19.7959C12.402 20.0552 12.2998 20.342 12.1898 20.6563ZM11.6005 12.0993C12.7792 12.0993 13.781 11.6867 14.6061 10.8617C15.4311 10.0366 15.8437 9.03474 15.8437 7.85608V5.71092L13.7928 7.45534L11.6005 4.81514L9.40819 7.45534L7.35732 5.71092V7.85608C7.35732 9.03474 7.76985 10.0366 8.59491 10.8617C9.41998 11.6867 10.4218 12.0993 11.6005 12.0993ZM10.6576 22C9.08602 22 7.75021 21.45 6.65012 20.3499C5.55004 19.2498 5 17.914 5 16.3424V14.4566C6.1158 14.4409 7.16873 14.6687 8.15881 15.1402C9.14888 15.6117 9.9818 16.2481 10.6576 17.0496V13.4606C9.30604 13.2445 8.18238 12.6116 7.2866 11.5618C6.39082 10.5121 5.94293 9.27682 5.94293 7.85608V4.15509C5.94293 3.84211 6.08437 3.62243 6.36725 3.49605C6.65012 3.36965 6.90157 3.4086 7.12159 3.6129L9.24318 5.45161L11.0583 3.25931C11.1979 3.08644 11.3781 3 11.5991 3C11.82 3 12.0012 3.08644 12.1427 3.25931L13.9578 5.45161L16.0794 3.6129C16.2994 3.4086 16.5509 3.36965 16.8337 3.49605C17.1166 3.62243 17.2581 3.84211 17.2581 4.15509V7.85608C17.2581 9.27644 16.8102 10.5114 15.9144 11.5608C15.0186 12.6103 13.895 13.2456 12.5434 13.4665V17.0496C13.2192 16.2481 14.0521 15.6117 15.0422 15.1402C16.0323 14.6687 17.0852 14.4409 18.201 14.4566V16.3424C18.201 17.914 17.651 19.2498 16.5509 20.3499C15.4508 21.45 14.115 22 12.5434 22H10.6576Z" fill="#B2C5E1"/>
</svg>
