<svg width="21" height="20" viewBox="0 0 21 20" fill="none" xmlns="http://www.w3.org/2000/svg">
<path d="M20.015 4.38243C19.6286 4.7511 19.0207 4.7511 18.6343 4.38243L16.4262 2.27556C16.0171 1.88522 16.0127 1.23358 16.4166 0.837818L16.7404 0.520548C17.1041 0.173516 17.5539 0 18.0899 0C18.6259 0 19.1045 0.191781 19.5256 0.575342L20.4158 1.39726C20.8561 1.78082 21.0475 2.22831 20.9901 2.73973C20.9326 3.25114 20.7221 3.6895 20.3583 4.05479L20.015 4.38243ZM17.4347 5.359C17.853 5.75183 17.8556 6.41533 17.4405 6.81146L3.90777 19.7235C3.72176 19.901 3.47455 20 3.21745 20H0.999999C0.447715 20 0 19.5523 0 19V16.9492C0 16.6755 0.112184 16.4137 0.310393 16.225L13.8733 3.30967C14.2575 2.94376 14.8606 2.94167 15.2474 3.3049L17.4347 5.359Z" fill="#B2C5E1"/>
</svg>
