<svg width="24" height="24" viewBox="0 0 24 24" fill="none" xmlns="http://www.w3.org/2000/svg">
<path d="M5 21C4.44772 21 4 20.5523 4 20V4.5C4 4.1 4.15455 3.75 4.46364 3.45C4.77273 3.15 5.13333 3 5.54545 3H12.4742C12.8864 3 13.247 3.15 13.5561 3.45C13.8652 3.75 14.0197 4.1 14.0197 4.5V10.7C14.0197 11.2523 14.4674 11.7 15.0197 11.7H15.6939C16.0545 11.7 16.3593 11.8208 16.6083 12.0625C16.8573 12.3042 16.9818 12.6 16.9818 12.95V18.425C16.9818 18.7917 17.1149 19.0958 17.3811 19.3375C17.6472 19.5792 17.9692 19.7 18.347 19.7C18.7247 19.7 19.0467 19.5792 19.3129 19.3375C19.579 19.0958 19.7121 18.7917 19.7121 18.425V11.6854C19.7121 11.3971 19.3998 11.207 19.1197 11.275C18.9136 11.325 18.7076 11.35 18.5015 11.35C17.8318 11.35 17.2609 11.1208 16.7886 10.6625C16.3164 10.2042 16.0803 9.65 16.0803 9C16.0803 8.46667 16.2348 7.99167 16.5439 7.575C16.9401 7.04102 17.1691 6.15673 16.692 5.69367L15.8109 4.83847C15.5506 4.58586 15.5535 4.16721 15.8173 3.91829C16.0652 3.68436 16.4534 3.68709 16.698 3.92449L20.2015 7.325C20.4419 7.55833 20.6351 7.8125 20.7811 8.0875C20.927 8.3625 21 8.66667 21 9V18.425C21 19.1417 20.7424 19.75 20.2273 20.25C19.7121 20.75 19.0854 21 18.347 21C17.6086 21 16.9818 20.75 16.4667 20.25C15.9515 19.75 15.6939 19.1417 15.6939 18.425V13.7871C15.6939 13.3248 15.3191 12.95 14.8568 12.95C14.3945 12.95 14.0197 13.3248 14.0197 13.7871V20C14.0197 20.5523 13.572 21 13.0197 21H5ZM5.54545 9.2C5.54545 9.75228 5.99317 10.2 6.54545 10.2H11.4742C12.0265 10.2 12.4742 9.75228 12.4742 9.2V5.5C12.4742 4.94772 12.0265 4.5 11.4742 4.5H6.54545C5.99317 4.5 5.54545 4.94772 5.54545 5.5V9.2ZM18.5015 10.1C18.8106 10.1 19.0768 9.99167 19.3 9.775C19.5232 9.55833 19.6348 9.3 19.6348 9C19.6348 8.7 19.5232 8.44167 19.3 8.225C19.0768 8.00833 18.8106 7.9 18.5015 7.9C18.1924 7.9 17.9263 8.00833 17.703 8.225C17.4798 8.44167 17.3682 8.7 17.3682 9C17.3682 9.3 17.4798 9.55833 17.703 9.775C17.9263 9.99167 18.1924 10.1 18.5015 10.1ZM5.54545 18.5C5.54545 19.0523 5.99317 19.5 6.54545 19.5H11.4742C12.0265 19.5 12.4742 19.0523 12.4742 18.5V12.7C12.4742 12.1477 12.0265 11.7 11.4742 11.7H6.54545C5.99317 11.7 5.54545 12.1477 5.54545 12.7V18.5Z" fill="#B2C5E1"/>
</svg>
