<svg width="24" height="24" viewBox="0 0 24 24" fill="none" xmlns="http://www.w3.org/2000/svg">
<path d="M4.35 21C3.99 21 3.675 20.8579 3.405 20.5737C3.135 20.2895 3 19.9579 3 19.5789V8.21053C3 7.83158 3.135 7.5 3.405 7.21579C3.675 6.93158 3.99 6.78947 4.35 6.78947H6.4C7.50457 6.78947 8.4 5.89404 8.4 4.78947V4.42105C8.4 4.04211 8.535 3.71053 8.805 3.42632C9.075 3.14211 9.39 3 9.75 3H14.25C14.61 3 14.925 3.14211 15.195 3.42632C15.465 3.71053 15.6 4.04211 15.6 4.42105V4.78947C15.6 5.89404 16.4954 6.78947 17.6 6.78947H19.65C20.01 6.78947 20.325 6.93158 20.595 7.21579C20.865 7.5 21 7.83158 21 8.21053V19.5789C21 19.9579 20.865 20.2895 20.595 20.5737C20.325 20.8579 20.01 21 19.65 21H4.35ZM4.35 17.5789C4.35 18.6835 5.24543 19.5789 6.35 19.5789H17.65C18.7546 19.5789 19.65 18.6835 19.65 17.5789V10.2105C19.65 9.10596 18.7546 8.21053 17.65 8.21053H6.35C5.24543 8.21053 4.35 9.10596 4.35 10.2105V17.5789ZM9.75 5.60526C9.75 6.25928 10.2802 6.78947 10.9342 6.78947H13.0658C13.7198 6.78947 14.25 6.25928 14.25 5.60526C14.25 4.95124 13.7198 4.42105 13.0658 4.42105H10.9342C10.2802 4.42105 9.75 4.95124 9.75 5.60526Z" fill="#B2C5E1"/>
</svg>
