<svg width="20" height="20" viewBox="0 0 20 20" fill="none" xmlns="http://www.w3.org/2000/svg">
<path d="M5.21739 11.4167C4.81159 11.4167 4.46377 11.2778 4.17391 11C3.88406 10.7222 3.73913 10.3889 3.73913 10C3.73913 9.61111 3.88406 9.27778 4.17391 9C4.46377 8.72222 4.81159 8.58333 5.21739 8.58333C5.62319 8.58333 5.97101 8.72222 6.26087 9C6.55072 9.27778 6.69565 9.61111 6.69565 10C6.69565 10.3889 6.55072 10.7222 6.26087 11C5.97101 11.2778 5.62319 11.4167 5.21739 11.4167ZM5.21739 15C3.76812 15 2.53623 14.5139 1.52174 13.5417C0.507246 12.5694 0 11.3889 0 10C0 8.61111 0.507246 7.43056 1.52174 6.45833C2.53623 5.48611 3.76812 5 5.21739 5C6.26087 5 7.17391 5.23611 7.95652 5.70833C8.05134 5.76555 8.14372 5.82633 8.23364 5.89068C9.49542 6.79359 10.7953 7.85417 12.3469 7.85417H16.6271C17.2152 7.85417 17.7805 8.08132 18.2051 8.48821V8.48821C19.1704 9.41327 19.1365 10.9665 18.1318 11.8486L17.2969 12.5816C16.7523 13.0598 15.9517 13.1046 15.3571 12.6902V12.6902C14.816 12.313 14.0971 12.313 13.5559 12.6902L13.523 12.7132C12.9396 13.1197 12.1603 13.102 11.596 12.6694L11.2131 12.3758C11.0185 12.2267 10.7802 12.1458 10.535 12.1458V12.1458C10.0913 12.1458 9.70033 12.4161 9.46366 12.7914C9.118 13.3395 8.66273 13.8083 8.09783 14.1979C7.32246 14.7326 6.36232 15 5.21739 15ZM5.21739 13.75C6.05797 13.75 6.83333 13.4826 7.54348 12.9479C7.76508 12.7811 7.96198 12.5997 8.13419 12.4037C8.79832 11.6481 9.6211 10.8958 10.6271 10.8958H10.909C11.2212 10.8958 11.5242 11.002 11.7682 11.1968V11.1968C12.2417 11.5749 12.9067 11.5991 13.4063 11.2563L13.6302 11.1026C14.1387 10.7538 14.8117 10.7624 15.311 11.1243L15.4066 11.1935C15.9055 11.555 16.5886 11.5206 17.0486 11.1109L17.2724 10.9115C17.7232 10.51 17.736 9.80949 17.3002 9.39182V9.39182C17.1075 9.20722 16.8511 9.10417 16.5843 9.10417H11.3569C9.92857 9.10417 8.71938 7.99184 7.6087 7.09375V7.09375C6.91304 6.53125 6.11594 6.25 5.21739 6.25C4.13043 6.25 3.20652 6.61458 2.44565 7.34375C1.68478 8.07292 1.30435 8.95833 1.30435 10C1.30435 11.0417 1.68478 11.9271 2.44565 12.6562C3.20652 13.3854 4.13043 13.75 5.21739 13.75Z" fill="#EABD66"/>
</svg>
