<svg width="24" height="24" viewBox="0 0 24 24" fill="none" xmlns="http://www.w3.org/2000/svg">
<path d="M14.8057 15.8205C15.0812 16.1071 15.5384 16.1116 15.8195 15.8305C16.0962 15.5538 16.0969 15.1055 15.8211 14.828L13.0332 12.0225C12.847 11.8352 12.7425 11.5818 12.7425 11.3176V7.8825C12.7425 7.50971 12.4403 7.2075 12.0675 7.2075C11.6947 7.2075 11.3925 7.50971 11.3925 7.8825V11.8673C11.3925 12.1257 11.4925 12.374 11.6716 12.5603L14.8057 15.8205ZM12 21C10.77 21 9.6075 20.7638 8.5125 20.2912C7.4175 19.8187 6.46125 19.1737 5.64375 18.3562C4.82625 17.5387 4.18125 16.5825 3.70875 15.4875C3.23625 14.3925 3 13.23 3 12C3 10.77 3.23625 9.6075 3.70875 8.5125C4.18125 7.4175 4.82625 6.46125 5.64375 5.64375C6.46125 4.82625 7.4175 4.18125 8.5125 3.70875C9.6075 3.23625 10.77 3 12 3C13.23 3 14.3925 3.23625 15.4875 3.70875C16.5825 4.18125 17.5387 4.82625 18.3562 5.64375C19.1737 6.46125 19.8187 7.4175 20.2912 8.5125C20.7638 9.6075 21 10.77 21 12C21 13.23 20.7638 14.3925 20.2912 15.4875C19.8187 16.5825 19.1737 17.5387 18.3562 18.3562C17.5387 19.1737 16.5825 19.8187 15.4875 20.2912C14.3925 20.7638 13.23 21 12 21ZM12 19.65C14.1 19.65 15.9 18.9 17.4 17.4C18.9 15.9 19.65 14.1 19.65 12C19.65 9.9 18.9 8.1 17.4 6.6C15.9 5.1 14.1 4.35 12 4.35C9.9 4.35 8.1 5.1 6.6 6.6C5.1 8.1 4.35 9.9 4.35 12C4.35 14.1 5.1 15.9 6.6 17.4C8.1 18.9 9.9 19.65 12 19.65Z" fill="#90B32E"/>
</svg>
