<svg width="24" height="24" viewBox="0 0 24 24" fill="none" xmlns="http://www.w3.org/2000/svg">
<path d="M2.78306 21C2.00213 21 1.52256 20.1449 1.92977 19.4785L11.1467 4.39628C11.5366 3.75821 12.4634 3.75821 12.8533 4.39628L22.0702 19.4786C22.4774 20.1449 21.9979 21 21.2169 21H2.78306ZM4.5305 18.0573C4.12304 18.7236 4.60259 19.5789 5.38364 19.5789H18.6164C19.3974 19.5789 19.877 18.7236 19.4695 18.0573L12.8531 7.23727C12.4632 6.59952 11.5368 6.59952 11.1469 7.23727L4.5305 18.0573ZM12.1 18.2289C12.3167 18.2289 12.4958 18.1618 12.6375 18.0276C12.7792 17.8934 12.85 17.7237 12.85 17.5184C12.85 17.3132 12.7792 17.1434 12.6375 17.0092C12.4958 16.875 12.3167 16.8079 12.1 16.8079C11.8833 16.8079 11.7042 16.875 11.5625 17.0092C11.4208 17.1434 11.35 17.3132 11.35 17.5184C11.35 17.7237 11.4208 17.8934 11.5625 18.0276C11.7042 18.1618 11.8833 18.2289 12.1 18.2289ZM11.35 14.85C11.35 15.2642 11.6858 15.6 12.1 15.6C12.5142 15.6 12.85 15.2642 12.85 14.85V11.0447C12.85 10.6305 12.5142 10.2947 12.1 10.2947C11.6858 10.2947 11.35 10.6305 11.35 11.0447V14.85Z" fill="#B3962E"/>
</svg>
